<svg xmlns="http://www.w3.org/2000/svg" width="48" height="48"><path d="M16 36c0-.555-.445-1-1-1h-4c-.555 0-1 .445-1 1v6c0 .555.445 1 1 1h4c.555 0 1-.445 1-1zm0 0M38 36c0-.555-.445-1-1-1h-4c-.555 0-1 .445-1 1v6c0 .555.445 1 1 1h4c.555 0 1-.445 1-1zm0 0" fill="#455a64"/><path d="M37.5 4h-27A2.497 2.497 0 0 0 8 6.5V37s0 2 2 2h28c2 0 2-2 2-2V6.5C40 5.117 38.883 4 37.5 4zm0 0" fill="#ffc107"/><path d="M10 22.5A1.5 1.5 0 0 1 8.5 24h-1A1.5 1.5 0 0 1 6 22.5v-3A1.5 1.5 0 0 1 7.5 18h1a1.5 1.5 0 0 1 1.5 1.5zm0 0M42 22.5a1.5 1.5 0 0 1-1.5 1.5h-1a1.5 1.5 0 0 1-1.5-1.5v-3a1.5 1.5 0 0 1 1.5-1.5h1a1.5 1.5 0 0 1 1.5 1.5zm0 0" fill="#ffc107"/><path d="M16 32.5c0 1.379-1.121 2.5-2.5 2.5a2.502 2.502 0 0 1-2.5-2.5c0-1.379 1.121-2.5 2.5-2.5s2.5 1.121 2.5 2.5zm0 0M37 32.5c0 1.379-1.121 2.5-2.5 2.5a2.502 2.502 0 0 1-2.5-2.5c0-1.379 1.121-2.5 2.5-2.5s2.5 1.121 2.5 2.5zm0 0" fill="#fff8e1"/><path d="M36.5 6h-25A1.5 1.5 0 0 0 10 7.5v16c0 1.383 1.117 2.5 2.5 2.5h23c1.383 0 2.5-1.117 2.5-2.5v-16A1.5 1.5 0 0 0 36.5 6zm0 0" fill="#9fa8da"/><path d="M38 12H10V7.5A1.5 1.5 0 0 1 11.5 6h25A1.5 1.5 0 0 1 38 7.5zm0 0" fill="#263238"/><path d="M12 8h11v2H12zm0 0M25 8h4v2h-4zm0 0" fill="#64dd17"/><path d="M21 26h-8v-7.5a1.5 1.5 0 0 1 1.5-1.5h5a1.5 1.5 0 0 1 1.5 1.5zm0 0M35 26h-8v-7.5a1.5 1.5 0 0 1 1.5-1.5h5a1.5 1.5 0 0 1 1.5 1.5zm0 0" fill="#7986cb"/><path d="M28.43 26c-.266-.297-.43-.637-.43-1 0-1.086 1.375-2 3-2s3 .914 3 2c0 .363-.164.703-.43 1h2.25c.106-.32.18-.652.18-1 0-2.207-2.242-4-5-4s-5 1.793-5 4c0 .348.074.68.18 1zm0 0" fill="#3949ab"/></svg>