<svg xmlns="http://www.w3.org/2000/svg" viewBox="0 0 162.21 56"><defs><style>.cls-1{fill:#101010;}</style></defs><g id="Layer_2" data-name="Layer 2"><g id="Marks"><path class="cls-1" d="M0,34.19C0,47.64,9.31,56,21.09,56c4.14,0,8.28-1,11.3-3.26V42.23A14.84,14.84,0,0,1,22.44,46c-6.12,0-11-4.38-11-11.78s4.86-11.7,11-11.7a14.5,14.5,0,0,1,10,3.74V15.73c-3-2.31-7.16-3.19-11.3-3.19C9.31,12.54,0,20.9,0,34.19Z"/><path class="cls-1" d="M56.39,12.54c-12,0-20.38,8.92-20.38,21.65S44.37,56,56.39,56s20.45-9,20.45-21.81S68.49,12.54,56.39,12.54Zm0,33.67c-5.73,0-8.92-5-8.92-12s3.19-11.94,8.92-11.94,8.91,5,8.91,11.94S62.2,46.21,56.39,46.21Z"/><path class="cls-1" d="M109.67,16.92a14.49,14.49,0,0,0-10.51-4.38c-12.1,0-18.94,9.79-18.94,21.65,0,12,6.84,21.81,18.94,21.81a14.81,14.81,0,0,0,10.51-4.38v3.43h11.54V0H109.67Zm0,24.2a8.84,8.84,0,0,1-7.88,4.77c-6.29,0-10-5-10-11.7s3.74-11.62,10-11.62a8.85,8.85,0,0,1,7.88,4.86Z"/><path class="cls-1" d="M144.3,12.54c-5.57,0-10.9,1.52-13.93,3.43v10a20.79,20.79,0,0,1,11.38-3.43c5.89,0,9.32,2.55,9.32,6.61v2.31c-1.68-1.2-5.74-2.47-9.32-2.47-9.15,0-16.07,5.41-16.07,13.37,0,8.6,6.92,13.45,15.36,13.45,4.53,0,8.67-1.59,10-2.94v2.23h11.14V28.46C162.21,18.35,155.68,12.54,144.3,12.54Zm6.77,31.2c-1,2.23-4.06,3.59-7.33,3.59-3.66,0-7.4-1.52-7.4-5.1s3.74-5.09,7.4-5.09c3.27,0,6.29,1.35,7.33,3.58Z"/></g></g></svg>