<svg xmlns="http://www.w3.org/2000/svg" width="48" height="48"><path d="M44 24c0 11-9 20-20 20S4 35 4 24 13 4 24 4s20 9 20 20zm0 0" fill="#ffca28"/><path d="M22 22c0 1.102 0 6-6 6-4 0-7-4-7-6s1-3 3-3h7c1.102 0 3 1 3 3zm0 0M26 22c0 1.102 0 6 6 6 4 0 7-4 7-6s-1-3-3-3h-7c-1.102 0-3 1-3 3zm0 0" fill="#37474f"/><path d="M22 23h-2c0-1 .8-3 4-3s4 2 4 3h-2c0-.102-.2-1-2-1s-2 .898-2 1zm0 0" fill="#37474f"/><path d="M24 37c-1.7 0-3-.5-3.898-1.398C19 34.5 19 33.102 19 33h2c0 .3.2 2 3 2 4.102 0 5-4 5-4.2l2 .4c-.398 2-2.398 5.8-7 5.8zm0 0" fill="#b76c09"/></svg>