<svg fill="none" height="20" viewBox="0 0 20 20" width="20" xmlns="http://www.w3.org/2000/svg"><path d="m17.8.466675h-15.59999c-.95767 0-1.733335.775665-1.733335 1.733335v15.59999c0 .9577.775665 1.7333 1.733335 1.7333h8.66669v-7.8h-2.60003v-2.59996h2.60003v-1.3962c0-2.64333 1.2878-3.8038 3.4848-3.8038 1.0522 0 1.6086.078 1.872.11353v2.48647h-1.4984c-.9326 0-1.2584.49227-1.2584 1.48893v1.11107h2.7334l-.3709 2.59996h-2.3625v7.8h4.3333c.9577 0 1.7333-.7756 1.7333-1.7333v-15.59999c0-.95767-.7765-1.733335-1.7333-1.733335z" fill="#c1976c"/></svg>