<svg fill="none" height="24" viewBox="0 0 23 24" width="23" xmlns="http://www.w3.org/2000/svg"><path d="m17.4462 6.46154c1.3384 0 2.5846.50769 3.5076 1.33846.6.50769 1.5231.09231 1.5231-.73846v-5.16923c0-1.015387-.8307-1.89231-1.8923-1.89231h-18.69229c-1.061541 0-1.89231.830769-1.89231 1.89231v20.26149c0 1.0154.830769 1.8462 1.89231 1.8462h18.73849c1.0154 0 1.8923-.8308 1.8923-1.8923v-5.1692c0-.7847-.9231-1.2462-1.5231-.7385-.9692.8308-2.1692 1.3385-3.5077 1.3385-3.0461 0-5.4923-2.4923-5.4923-5.5385 0-3.04615 2.4462-5.53846 5.4462-5.53846z" fill="#ee5a29"/></svg>