<svg xmlns="http://www.w3.org/2000/svg" width="48" height="48"><path d="M38 20c0-7.7-6.3-14-14-14s-14 6.3-14 14c0 5 2.602 9.3 6.5 11.8.898 1.098 1.5 2.5 1.5 3.9v.3h12v-.102c0-1.5.5-2.898 1.398-4C35.398 29.398 38 25 38 20zm0 0" fill="#fbc02d"/><path d="M26 44h-4c-2.2 0-4-1.8-4-4v-5h12v5c0 2.2-1.8 4-4 4" fill="#9fa8da"/><path d="M26.8 43.898C26.5 45.102 25.3 46 24 46c-1.3 0-2.5-.898-2.8-2.102.198.102.5.102.8.102h4c.3 0 .602 0 .8-.102zM30 40l-11.602 1.602C18.7 42.3 19.301 43 20 43.398l9.398-1.296C29.801 41.5 30 40.8 30 40m-12-2.3v2L30 38v-2zm0 0" fill="#5c6bc0"/><path d="M30.602 18.2l-3-2c-.301-.2-.801-.2-1.102 0L24 17.8l-2.398-1.6c-.301-.2-.801-.2-1.102 0l-3 2c-.2.198-.398.402-.398.698 0 .301 0 .602.199.801l3.8 4.7V35h2V24c0-.2-.101-.398-.203-.602l-3.296-4.097 1.5-1 2.398 1.597c.3.204.8.204 1.102 0L27 18.301l1.5 1-3.3 4.097c-.098.204-.2.403-.2.602v11h2V24.398l3.8-4.699c.2-.199.302-.5.2-.8-.102-.297-.2-.598-.398-.7zm0 0" fill="#fff59d"/><path d="M10.898 32.398a.967.967 0 0 1 0-1.398.972.972 0 0 1 1.403 0c.398.398.398 1-.102 1.398-.199.204-.398.301-.699.301-.102 0-.398-.097-.602-.3zm24.801 0a.967.967 0 0 1 0-1.398 1.08 1.08 0 0 1 1.403-.102c.398.403.398 1 0 1.403-.204.199-.5.3-.704.3-.296.098-.5 0-.699-.203zM8.4 29c-.297-.5-.098-1.102.402-1.398.5-.301 1.097-.102 1.398.398.301.5.102 1.102-.398 1.398-.2.102-.301.102-.5.102-.403 0-.7-.2-.903-.5zm29.8.398c-.5-.296-.597-.898-.398-1.398.3-.5.898-.7 1.398-.398.5.296.602.898.403 1.398-.204.3-.5.5-.903.5-.199 0-.3-.102-.5-.102zM6.801 25.2A.887.887 0 0 1 7.5 24a.888.888 0 0 1 1.2.7c.1.5-.098 1.1-.7 1.198h-.3c-.4 0-.802-.296-.9-.699zM40 25.801c-.5-.2-.8-.7-.7-1.2.2-.5.7-.8 1.302-.703.5.102.796.704.699 1.204-.102.398-.5.699-1 .699-.102.097-.2.097-.301 0zM6 21.1s0-.101 0 0c0-.101 0-.101 0 0C6 20.5 6.398 20 7 20s1 .398 1.102.898c0 .5-.403 1-.903 1.102h-.097c-.602 0-1-.398-1.102-.898zM40.898 22c-.597 0-1-.5-1-1.102 0-.5.5-1 1.102-.898.5 0 1 .5.898 1.102 0 .5-.398.898-1 .898zm-1.097-4.8c-.102-.5.3-1.098.8-1.2.5-.102 1.098.3 1.2.8A1.04 1.04 0 0 1 41 18h-.2c-.5 0-1-.3-1-.8zM7.1 18a1.038 1.038 0 0 1-.8-1.2c.097-.5.597-.902 1.097-.8.602.102.903.602.801 1.2-.097.5-.5.8-1 .8h-.097zM38.7 13.7c-.199-.5 0-1.098.5-1.302.5-.199 1.102 0 1.301.5.2.5 0 1.102-.5 1.301-.102 0-.3.102-.398.102-.403 0-.704-.301-.903-.602zM8 14.101c-.5-.204-.7-.801-.5-1.301.2-.5.8-.7 1.3-.5.5.199.7.8.5 1.3-.198.399-.5.598-.902.598-.097 0-.296 0-.398-.097zm28.8-3.704c-.3-.398-.198-1 .2-1.398.398-.3 1.102-.2 1.398.2.301.402.204 1.1-.199 1.402-.199.097-.398.199-.597.199-.301 0-.602-.102-.801-.403zm-27 .204c-.402-.301-.5-.903-.198-1.403.296-.398 1-.5 1.398-.199.398.3.5 1 .2 1.398-.2.301-.5.403-.802.403-.199 0-.398 0-.597-.2zM34.3 7.8c-.402-.403-.5-1-.1-1.403.402-.398 1-.5 1.402-.097.398.398.5 1 .097 1.398-.199.2-.5.301-.8.301-.2 0-.399-.102-.598-.2zm-22-.2c-.402-.402-.3-1 .098-1.402.403-.398 1.102-.3 1.403.102.398.398.3 1-.102 1.398-.199.2-.398.301-.597.301-.301 0-.602-.2-.801-.398zM31.2 5.7c-.5-.199-.7-.898-.4-1.3.302-.5.802-.7 1.302-.399.5.3.699.898.398 1.3-.2.4-.5.598-.898.598-.102-.097-.301-.097-.403-.199zm-15.7-.5c-.2-.5 0-1.097.5-1.3.5-.297 1.102-.098 1.3.402.302.5 0 1.097-.402 1.3-.097.098-.296.098-.5.098-.398.102-.699-.097-.898-.5zm12.2-.8c-.5-.098-.9-.7-.802-1.2.102-.5.704-.898 1.204-.8.5.101.898.703.699 1.203-.102.5-.5.796-1 .796.097.102 0 0-.102 0zm-8.598-.7c-.102-.5.199-1.097.796-1.199.5-.102 1.102.2 1.204.7.097.5-.204 1.1-.704 1.198H20.2c-.597 0-1-.296-1.097-.699zM23 3c0-.602.398-1 1-1 .5 0 1 .398 1 1 0 .5-.5 1-1 1s-1-.5-1-1zm0 0" fill="#ffea00"/></svg>