<svg fill="none" height="20" viewBox="0 0 20 20" width="20" xmlns="http://www.w3.org/2000/svg"><path d="m17.8.466675h-15.59999c-.95767 0-1.733335.775665-1.733335 1.733335v15.59999c0 .9577.775665 1.7333 1.733335 1.7333h15.59999c.9577 0 1.7333-.7756 1.7333-1.7333v-15.59999c0-.95767-.7756-1.733335-1.7333-1.733335zm-11.30653 15.600025h-2.55666v-8.22643h2.55666zm-1.30433-9.40249c-.8242 0-1.49067-.6682-1.49067-1.49067s.66734-1.4898 1.49067-1.4898c.8216 0 1.4898.6682 1.4898 1.4898 0 .82247-.6682 1.49067-1.4898 1.49067zm10.88096 9.40249h-2.5549v-4.0006c0-.9542-.0173-2.18136-1.3286-2.18136-1.3303 0-1.5349 1.03916-1.5349 2.11206v4.0699h-2.55489v-8.22643h2.45269v1.12407h.0346c.3415-.64653 1.1752-1.3286 2.4189-1.3286 2.5887 0 3.0671 1.70387 3.0671 3.91906z" fill="#c1976c"/></svg>