<svg fill="none" height="32" viewBox="0 0 90 32" width="90" xmlns="http://www.w3.org/2000/svg"><path d="m0 0v24.9433l3.2098.0245v-11.8836h7.7427v-3.13627h-7.7427v-6.81164h10.0704v-3.13629zm19.0628 5.07198c1.1516 0 2.1072-.93109 2.1072-2.1072s-.9311-2.1072-2.1072-2.1072c-1.1516 0-2.1072.93109-2.1072 2.1072s.9311 2.1072 2.1072 2.1072zm-1.6417 3.13629v16.75953h3.2098v-16.75953zm15.1179-.49005c-4.2634 0-7.2281 3.60188-7.2281 7.88978s2.9647 7.8897 7.2281 7.8897c1.9602 0 3.5529-.7351 4.729-1.9847v2.2297c.0245 2.7688-2.1807 5.072-4.974 5.0965-.0245 0-.0245 0-.049 0-1.0291 0-2.0337-.392-2.8422-.9556l-1.6172 2.7933c3.8224 2.4747 8.9188 1.3721 11.3691-2.4503.8575-1.3476 1.3231-2.8912 1.3231-4.4839v-15.50993h-3.2098v1.49464c-1.1761-1.24962-2.7688-2.00919-4.729-2.00919zm-4.0183 7.88978c0-2.6708 2.0337-4.7535 4.3859-4.7535s4.3614 2.1072 4.3614 4.7535c0 2.6707-2.0337 4.7289-4.3614 4.7289-2.3522 0-4.3859-2.0827-4.3859-4.7289zm23.5222-4.7535c-1.9112.0245-3.4549 1.5927-3.4304 3.5038v10.585h-3.2098v-16.75953h3.2098v1.54364c.9801-1.29862 2.4993-2.03369 4.1409-2.00919 2.2542 0 3.9939 1.10261 4.974 2.81778 1.1271-1.73968 3.0383-2.79328 5.0965-2.81778 3.6508 0 5.9295 2.94028 5.9295 6.59108v10.634h-3.1853v-10.585c0-1.9111-1.5191-3.4793-3.4303-3.5038-1.9112.0245-3.4548 1.5927-3.4303 3.5038v10.585h-3.2343v-10.585c0-1.9111-1.5192-3.4793-3.4303-3.5038zm33.8131-.7596c-1.4701-1.5436-3.5283-2.40118-5.66-2.37668-4.7779 0-8.1593 4.04288-8.1593 8.84538 0 4.8269 3.3814 8.8453 8.1593 8.8453 2.1317 0 4.1654-.8576 5.66-2.3767v1.9111h3.2098v-16.75953h-3.2098zm-10.6095 6.4687c0-3.1853 2.4503-5.7336 5.317-5.7336 2.8423.0245 5.2925 2.5483 5.2925 5.7336 0 3.1852-2.4502 5.709-5.317 5.709-2.8177.0245-5.2925-2.4992-5.2925-5.709z" fill="#101010"/></svg>