<svg fill="none" height="29" viewBox="0 0 195 29" width="195" xmlns="http://www.w3.org/2000/svg"><g fill="#101010"><path d="m5.55513 15.488v-7.51186l-2.19462 1.02435s-.56528 1.29751-.46553 3.17541c.06651 1.4683.86455 3.2097 1.49634 3.9608zm6.45087-15.4675788c.532.0341447 1.3966.3073028 2.0283.8877628.6983.682896.8313 1.707236.5986 2.663286-.1995.81948-.4655 1.26336-1.2968 1.84382s-1.8621.54631-1.8621.54631v3.61935l1.7291 1.43405-1.7291 1.4341v4.951s1.7291-1.0244 2.7931-3.2779c0 0 .0333-.1366.133-.3415.0998.6147.0333 1.8439-.6318 3.4145-.4655 1.1268-1.3965 2.2536-2.5271 2.9365-2.02837 1.1609-3.55795 1.2633-5.22054.9219-1.92861-.4098-3.65771-1.5024-4.85477-3.4486-.831298-1.3658-1.1970684-2.9365-1.16381655-4.6437.06650365-3.34621 2.49388655-6.21437 5.28704655-7.307.33251-.13658.46552-.20487.9643-.27316-.23277.17073-.46553.34145-.79805.58046-.8978.61461-1.66259 1.80968-1.99511 2.73158l5.42005-2.49256v7.78498l-4.38924 2.2536c.49878.717 2.02836 1.7755 3.29193 1.9462 2.19462.239 3.4914-.7512 3.4914-.7512v-5.0534l-1.6958-1.4341 1.6958-1.43404v-3.55106c-.931-.10243-2.06157-.40973-2.72661-.58046-.93105-.27315-4.18973-1.19506-4.6885-1.2975-.49878-.06829-1.13057-.06829-1.52959.30731-.36577.34144-.63178.95605-.46552 1.53651.09975.3073.29926.51217.46552.68289 0 0-.19951 0-.53203-.23901-.59853-.37559-1.064056-1.12677-1.13056-2.01454-.066504-1.19506.43227-2.28769 1.39658-3.00473.83129-.54632 1.76234-.887767 2.85966-.751188 1.59608.239013 3.75745 1.160918 5.65285 1.638948.7315.17072 1.33.23901 1.8288-.06829.2328-.17072.665-.64875.3325-1.263356-.399-.717039-1.197-.717039-1.8621-.8194734.5653-.1024342.6983-.1024342 1.1306-.0682894z"/><path d="m33.0874 13.5426-2.4606 1.8439v-6.18024zm-.0665-5.94114s-1.6625 1.02434-2.7931 1.70723c-1.1306.6829-2.6269 1.43411-2.6269 1.43411v7.1704l-.9976.8194.133.1708.9644-.8195 3.0591 2.834 5.3203-4.3364-.133-.1707-2.9262 2.356-2.4273-2.3219v-.8536l4.8547-3.6535z"/><path d="m19.1217 23.6495c.6983.1707 1.9286.2732 3.4249-.478 1.6294-.8536 2.4607-2.6292 2.4607-4.473l.0665-2.595v-5.7021l1.064-.81952-.133-.17072-1.064.78534-2.3942-2.73159-3.0592 2.69739v-9.15075l-3.8239 3.03888c.1662.10244.6983.20487.7315.9902v12.83847l-1.5961 1.2292.0998.1707.798-.6146 2.1614 2.0828 3.4249-2.7657-.133-.1707-.798.6487-.8646-.8536v-7.1363l.9976-.88772 1.4963 1.91212v6.1802c0 1.6389 0 3.6876-.8645 4.6778-.7981.9561-1.1638 1.0244-1.9951 1.2975z"/><path d="m42.8969 23.0008c-1.3634-.1708-1.9286-1.0244-1.9286-1.6731 0-.4439.399-1.2634 1.2303-1.4.8313-.1024 1.6958.2732 2.3941 1.161l3.1589-3.5852-.1662-.1366-.8646.9902c-.8645-1.0244-2.0948-1.639-3.2919-1.8438v-10.92635l8.2132 15.36515s.0665.1707.4323.1707c.2992 0 .2327-.239.2327-.239v-15.46758c.6651-.03414 1.6959-.40973 2.1947-.92191 1.5961-1.67309.931-3.48276.7648-3.653482-.0998.785332-.6983 1.604802-1.6959 1.604802-1.2968 0-2.0948-.9902-2.0948-.9902l-3.1922 3.65349.1662.13658.8978-1.05849c1.0973 1.05849 1.9286 1.12678 2.7599 1.19507v8.98002l-6.1183-11.37015c-.5653-.92191-1.3966-1.77553-2.6934-1.77553-1.5296 0-2.5937 1.36579-2.7267 2.52671-.133 1.33165 0 1.63895 0 1.63895s.2328-1.46823 1.1306-1.46823c.798 0 1.2303.78533 1.5296 1.33165v3.27789c-.8313.06829-2.9927.17073-3.1257 2.45841 0 .8536.4988 1.7414.9643 2.0487.5986.4097 1.0308.3756 1.0308.3756s-.6983-.3756-.4988-1.1268c.1996-.6829 1.5629-.7853 1.5961-.5122v4.6437c-.665 0-2.7599.0683-3.7242 1.9121-.5653 1.1268-.532 2.3902.0665 3.2779.5653.7854 1.5961 1.7073 3.3585 1.4z"/><path d="m60.2876 13.5426-2.4607 1.8439v-6.18024zm-.0665-5.94114s-1.6626 1.02434-2.7932 1.70723c-1.1306.6829-2.6269 1.43411-2.6269 1.43411v7.1704l-.9975.8194.133.1708.9643-.8195 3.0591 2.834 5.3203-4.3364-.133-.1707-2.9261 2.356-2.4274-2.3219v-.8536l4.8547-3.6535z"/><path d="m67.6695 20.9862-2.5936-2.2194-1.1306.8536-.0997-.1707 1.1638-.8878v-6.1802c.0665-2.56084-2.2944-1.9121-2.1614-4.64366.0665-1.19507 1.1638-2.08283 1.7624-2.39014.5985-.3073 1.2635-.3073 1.2635-.3073s-1.064.6829-.798 1.67309c.399 1.50237 2.9262 1.63895 2.9594 3.68761v6.9997l1.8621 1.5365.4988-.4097v-7.6143l-.9976-1.02435 2.5937-2.35598 2.3609 2.15111-.8978.99022v6.7606l2.2278 1.878.399-.2732v-8.0923l-.9975-.95601 2.5936-2.42428 2.4274 2.04869.9643-.88777.133.17073-2.1946 1.98044v6.624l-5.5863 3.5169-2.8597-2.3218z"/><path d="m181.823 13.5426-2.461 1.8439v-6.18024zm-.067-5.94114s-1.662 1.02434-2.793 1.70723c-1.13.6829-2.627 1.43411-2.627 1.43411v7.1704l-.997.8194.133.1708.964-.8195 3.059 2.834 5.321-4.3364-.133-.1707-2.927 2.356-2.427-2.3219v-.8536l4.888-3.6193z"/><path d="m156.817 10.6062.133.1707.998-.88773 1.496 1.70723v5.9412l-.731.6829 2.327 2.6633 2.361-2.3902-.964-1.0584v-7.1363l.599-.51216 1.629 1.98036v5.9071l-.632.6487 2.195 2.4926 2.327-2.3901-.864-.922v-7.2045l.632-.51216 1.695 1.94626v5.8729l-.565.5804 2.394 2.6975 3.259-3.0731-.166-.1365-.765.717-1.197-1.3658v-6.6924l1.164-.92186-.133-.17072-1.164.92188-2.195-2.52668-3.159 2.52668-2.194-2.45839-3.026 2.45839-2.228-2.42425z"/><path d="m150.267 10.4355.133.1366.831-.75121 1.33 1.60481v6.7948l-.931.8195.133.1707.965-.8536 2.128 2.5267 3.092-2.834-.133-.1707-.898.8194-1.297-1.5023v-6.6241l1.098-.95607-.133-.13658-1.031.88775-2.228-2.69742z"/><path d="m151.131 4.80161 2.328-2.18526 1.895 2.15111-2.327 2.18527z"/><path d="m141.588 15.4889v-7.51185l-2.194 1.02434s-.566 1.29751-.466 3.17541c.067 1.4683.865 3.2097 1.496 3.9608zm6.451-15.4675753c.532.0341447 1.397.3073023 2.028.8877633.699.682892.832 1.707232.599 2.663292-.2.81947-.466 1.26335-1.297 1.84381s-1.862.54632-1.862.54632v3.61934l1.729 1.43405-1.729 1.4341v4.951s1.729-1.0243 2.793-3.2779c0 0 .033-.1366.133-.3414.1.6146.033 1.8438-.632 3.4144-.498 1.1951-1.429 2.3219-2.56 2.9706-2.028 1.1609-3.558 1.2634-5.187.9219-1.929-.4097-3.658-1.5023-4.855-3.4486-.831-1.3658-1.197-2.9364-1.164-4.6437.067-3.34616 2.494-6.21432 5.287-7.30695.333-.13658.466-.20487.964-.27316-.232.17073-.465.34145-.798.58046-.897.61461-1.662 1.80967-1.995 2.73158l5.42-2.49256v7.78503l-4.356 2.2535c.499.7171 2.029 1.7755 3.292 1.9463 2.195.239 3.492-.7512 3.492-.7512v-5.0534l-1.696-1.4341 1.696-1.43409v-3.5852c-.931-.10244-2.062-.40974-2.727-.58046-.964-.23902-4.223-1.19507-4.722-1.26336-.498-.06829-1.13-.06829-1.529.30731-.366.34144-.632.95605-.466 1.53651.1.3073.299.51217.466.68289 0 0-.2 0-.532-.23901-.599-.37559-1.064-1.12678-1.131-2.01454-.066-1.19507.399-2.25355 1.363-3.00474.832-.546312 1.763-.887759 2.86-.75118 1.596.239013 3.758 1.16092 5.653 1.63895.731.17072 1.33.23901 1.829-.06829.233-.17073.665-.64875.332-1.263358-.399-.717039-1.197-.717039-1.862-.819473.599-.1365791.732-.1365791 1.164-.1024343z"/><path d="m188.673 9.00139v3.55101l1.164 1.0244s2.493-2.0487 3.425-3.9608c0 0-1.131 1.5707-2.661 1.0926-1.263-.4097-1.928-1.70721-1.928-1.70721zm-2.793 9.42391s1.097-1.8779 2.992-1.4682c1.796.3756 2.428 2.356 2.428 2.356v-4.5071l-1.264-1.1268c-1.396 1.4341-3.857 3.4828-4.156 4.7461zm1.795 3.4487c-.366.1024-1.895-.2732-2.261-1.9122-.366-1.5706.732-2.6632 2.328-4.3363l-1.929-1.8097v-3.4145s1.397-.71702 2.494-1.43405c1.097-.71704 2.228-1.46823 2.228-1.46823s.831 1.05849 1.762.9902c1.463-.13658 1.397-1.2975 1.33-1.57066.233.44388.898 1.80967-1.629 4.84854l2.095 1.7414v4.4388s-2.428 1.2975-4.689 3.0047c0 0-1.263-1.6389-2.394-.8536-.731.4781-.399 1.3658.665 1.7756z"/><path d="m104.047 16.8206 2.693 2.4925v-7.6484l-2.693-2.56085zm5.52-6.2485.931-.88779.133.17072-.898.85367v7.0679s-1.729.9561-2.96 1.639c-1.197.717-2.493 1.5365-2.493 1.5365l-3.193-2.7658-.831.7512-.133-.1707.898-.7853v-7.5802s1.496-.68285 2.76-1.43403c1.13-.64875 2.394-1.39993 2.394-1.39993z"/><path d="m115.818 9.85502 2.028-2.11698s.266.23902.532.3756c.133.06829.765.40973 1.331.06829.299-.17073.332-.20487.665-.54632.066 1.63895-.699 2.79989-1.663 3.27789-.399.2049-1.53.5805-2.76-.9219v7.6143l1.264 1.1609 1.064-.9219.133.1707-3.359 2.8682-2.527-2.3902-.931.8878-.166-.1707 1.396-1.2975v-6.59l-1.064-1.46818-.931.81948-.133-.1366 3.226-3.00472z"/><path d="m124.331 13.0305 3.724-5.56562s.499.6146 1.363.81947c1.164.30731 2.195-.85362 2.195-.85362-.2 1.50237-.931 3.17547-2.461 3.44867-1.33.239-2.594-.8537-2.594-.8537l-.232.3756 5.187 8.0582 1.031-.9219.133.1707-3.558 3.2096z"/><path d="m121.271 5.58692c0-1.19507-.465-1.94625-1.097-1.87796l4.09-2.93645v16.62849l1.064 1.1609.831-.717.133.1707-3.292 2.9365-2.228-2.1512-.897.8195-.133-.1707 1.562-1.4v-12.46278"/><path d="m95.1021 10.2647s-.4655.5122-1.1638.5122-1.1638-.5122-1.1638-.5122v2.2877s.4655-.5121 1.1638-.5121 1.1638.5121 1.1638.5121zm0-4.88265-1.5629-1.43408-.7647.6146v5.32658s.4655.61465 1.1638.61465 1.1638-.5805 1.1638-.5805zm-2.3276 15.12615s.9643.2731 1.6293-.3073c.7648-.6488.6983-1.5707.6983-1.5707v-5.7705s-.4323-.5804-1.1638-.5804c-.6983 0-1.1638.6146-1.1638.6146zm-5.5863-15.19444c0-1.12678-.4323-1.74138-1.1638-1.77553-1.0308-.03414-1.2969 1.46823-1.2969 1.46823s-.1995-1.16092.7648-2.21941c.5321-.58046 1.5296-1.39994 3.0592-1.02434 1.5961.40973 2.0616 1.67309 2.0616 2.79986v15.46753s.5985.0683 1.0308.1708c.4655.1024.9311.239.9311.239v-18.64305h.1995v2.52671l3.2586-2.69743 2.3942 2.18526 1.1305-.9902.133.17073-1.1638 1.02434v14.37494c-.0665.9219-.1995 1.8779-1.064 2.4584-1.9286 1.1609-4.2563-.1707-6.3179-.478-1.5296-.239-3.9569-.5463-4.5555.9219-.1995.478-.1995 1.1951.4988 1.6731 1.3966.956 7.6147-1.6048 9.7428-.5805 1.9618.9219 1.9286 2.3902 1.6293 3.4145-.4988 1.9121-2.8264 2.2194-2.8264 2.2194s1.1306-.6829.8313-1.8097c-.1662-.5804-.532-.717-1.7623-.5804-2.6602.3073-5.8523 1.6389-8.0137.717-1.0973-.478-1.8954-1.878-1.7956-3.2779.0665-2.0145 2.2944-2.7999 2.2944-2.7999v-7.4094c-.0665-.3073-1.2636-.2048-1.5296.3415-.399.8195.4988 1.1951.4988 1.1951s-.7316.1024-1.3634-.6146c-.2992-.3756-.931-1.639-.0997-2.7999.665-.9561 1.4963-1.12679 2.5271-1.22923v-4.43881z"/></g></svg>