<svg fill="none" height="25" viewBox="0 0 70 25" width="70" xmlns="http://www.w3.org/2000/svg"><g fill="#101010"><path d="m3.96774 17.6502c.29032.7988.69231 1.4824 1.2134 2.0507.51365.5684 1.12407.9985 1.83127 1.2981.70719.2995 1.47394.4531 2.30769.4531.804 0 1.5633-.1536 2.2705-.4685s1.325-.7527 1.8536-1.3211c.5285-.5683.9379-1.2442 1.2283-2.0277.2903-.7834.4392-1.6667.4392-2.6344v-15.0004h3.5359v24.3017h-3.4987v-2.2582c-.7817.8526-1.7122 1.5131-2.7767 1.9817-1.0645.4608-2.2184.6912-3.44664.6912-1.25807 0-2.4268-.2227-3.51365-.6759-1.08685-.4531-2.03226-1.0906-2.82878-1.9278-.79653-.8372-1.43673-1.8357-1.890822-3.0032-.461539-1.1674-.692308-2.4732-.692308-3.9094v-15.2001h3.53598v14.9927c0 .9754.14144 1.8587.43176 2.6575z"/><path d="m24.7296 0v8.84814c.7816-.80647 1.6898-1.45165 2.7245-1.92785s2.1514-.7143 3.3648-.7143c1.258 0 2.4342.24578 3.5359.72966 1.1018.48388 2.0546 1.14442 2.8586 1.98162.804.83719 1.4442 1.82033 1.9206 2.94933.469 1.1368.7072 2.335.7072 3.61s-.2382 2.4731-.7072 3.5945-1.1092 2.0968-1.9206 2.934c-.804.8296-1.7643 1.4901-2.8586 1.9817-1.1017.4838-2.2779.7296-3.5359.7296-1.2134 0-2.3375-.2381-3.3797-.7143s-1.9578-1.1137-2.7394-1.9278v2.2197h-3.3648v-24.294zm.387 17.8729c.3053.7374.7221 1.3902 1.2581 1.9432.536.5531 1.1687.9985 1.8834 1.3211.7146.3226 1.4888.4839 2.3226.4839.8039 0 1.5707-.1613 2.2853-.4839.7147-.3226 1.34-.7604 1.8685-1.3211.5285-.553.9454-1.2058 1.2581-1.9432.3126-.7373.4689-1.5361.4689-2.3963 0-.8603-.1563-1.6591-.4689-2.4118-.3127-.7527-.737-1.4055-1.2581-1.9585-.5285-.553-1.1464-.9908-1.8685-1.29808-.7221-.30722-1.4814-.46852-2.2853-.46852-.804 0-1.5708.15362-2.2854.46852-.7146.31488-1.3474.74508-1.8834 1.29808-.5359.553-.9677 1.2058-1.2804 1.9585-.3126.7527-.4689 1.5592-.4689 2.4118 0 .8602.1488 1.659.454 2.3963z"/><path d="m41.7468 11.905c.4466-1.1137 1.0645-2.08913 1.8536-2.934.7891-.84488 1.7122-1.5131 2.7916-1.99698s2.2407-.72967 3.4987-.72967c1.2358 0 2.3747.23043 3.4318.69127s1.9652 1.10601 2.7246 1.92785c.7593.82183 1.3548 1.79723 1.7866 2.91863.4243 1.1214.6402 2.3426.6402 3.6637v1.1444h-13.9653c.1116.7143.335 1.3826.67 1.997.3349.6145.7593 1.1444 1.258 1.5976.5062.4532 1.0794.8065 1.7122 1.0599.6402.2535 1.3176.3841 2.0322.3841 2.0397 0 3.6924-.868 4.943-2.6038l2.4566 1.8741c-.8487 1.1828-1.9058 2.1045-3.1638 2.7804-1.2581.6682-2.6725 1.0062-4.2358 1.0062-1.2804 0-2.4714-.2304-3.5806-.6913-1.1092-.4608-2.0769-1.1137-2.8958-1.9432-.8188-.8295-1.4665-1.8126-1.9355-2.934s-.7072-2.3426-.7072-3.6637c.0149-1.2596.2382-2.4348.6849-3.5485zm4.727-1.3671c-.9528.8218-1.5856 1.9124-1.8982 3.2796h10.4665c-.2903-1.3672-.9156-2.4578-1.8685-3.2796-.9529-.82188-2.0695-1.22895-3.3499-1.22895-1.2804-.00768-2.397.40707-3.3499 1.22895z"/><path d="m64.8314 10.9374c-.7147.8064-1.0794 1.9125-1.0794 3.295v10.0694h-3.3946v-17.70402h3.3648v2.189c.4243-.71431.9826-1.28268 1.6675-1.69744.6848-.41475 1.4963-.62213 2.4417-.62213h1.1761v3.26429h-1.4143c-1.1241-.01536-2.0472.3917-2.7618 1.2059z"/></g></svg>