<svg fill="none" height="30" viewBox="0 0 120 30" width="120" xmlns="http://www.w3.org/2000/svg"><g fill="#101010"><path d="m24.9927 0h-19.98542c-2.76565 0-5.00728 2.24163-5.00728 5.00728v19.97092c0 2.7656 2.24163 5.0072 5.00728 5.0072h19.97092c2.7656 0 5.0072-2.2416 5.0072-5.0072v-19.97092c.0146-2.76565-2.227-5.00728-4.9927-5.00728zm-.4512 22.9694c0 .8734-.7133 1.5866-1.5866 1.5866h-15.90978c-.87336 0-1.58661-.7132-1.58661-1.5866v-15.92428c0-.87336.71325-1.58661 1.58661-1.58661h15.92428c.8734 0 1.5866.71325 1.5866 1.58661v15.92428z"/><path d="m11.8195 19.0684c-.5095 0-.9025-.4075-.9025-.917v-6.3464c0-.5095.4076-.9171.9025-.9171h6.361c.4949 0 .9024.4076.9024.9171v6.361c0 .5094-.4075.917-.9024.917h-6.361z"/><path d="m45.2696 13.6682c-.9315-.2474-1.8049-.4949-2.489-.8006-1.2664-.5676-1.8487-1.3537-1.8487-2.4599 0-2.11066 2.0379-3.0568 4.0612-3.0568 1.9214 0 3.6099.80058 4.7452 2.24163l.0728.10189 1.6303-1.28093-.0728-.1019c-1.4993-1.90684-3.7263-2.96943-6.2736-2.96943-1.6885 0-3.246.45124-4.3668 1.28093-1.2664.93159-1.9214 2.27075-1.9214 3.85731 0 3.7118 3.508 4.6289 6.3173 5.3567 2.853.7569 4.5997 1.3246 4.5997 3.4934 0 2.1398-1.7322 3.5226-4.4105 3.5226-1.3246 0-3.77-.3494-5.3129-2.7074l-.0728-.1165-1.7176 1.2373.0727.1019c1.4556 2.1979 3.9738 3.4643 6.8996 3.4643 3.9884 0 6.6667-2.2416 6.6667-5.5895-.0146-3.7846-3.6536-4.789-6.5794-5.575z"/><path d="m64.8324 10.8735v2.0087c-1.1062-1.4993-2.7511-2.329-4.6724-2.329-3.6391 0-6.1864 2.9403-6.1864 7.1616 0 4.1921 2.5473 7.1325 6.1864 7.1325 1.9359 0 3.5662-.8152 4.6724-2.3145v7.4673h1.9214v-19.1266zm-4.5123 12.1106c-2.0961 0-4.3232-1.3828-4.3232-5.2839 0-2.5473 1.1354-5.2692 4.3232-5.2692 2.7365 0 4.5123 2.0669 4.5123 5.2692 0 3.2024-1.7758 5.2839-4.5123 5.2839z"/><path d="m79.4176 10.8734v7.5546c0 2.6492-1.8049 4.556-4.294 4.556-2.067 0-3.0713-1.2227-3.0713-3.7554v-8.3552h-1.9214v8.7482c0 3.2751 1.7758 5.2256 4.7598 5.2256 1.8632 0 3.4498-.786 4.5415-2.2271v1.9214h1.9214v-13.6681z"/><path d="m90.2042 10.5677c-1.9359 0-3.8428.6405-5.2547 1.7468l-.0874.0728 1.0044 1.5138.1019-.0874c1.1936-1.0334 2.9403-1.3973 4.1921-1.3973.6987 0 2.9986.131 2.9986 1.9068 0 1.5575-1.9069 1.8632-3.7555 2.1397-.2329.0292-.4512.0728-.6696.1019-1.3537.2184-4.5123.757-4.5123 4.1048 0 2.5765 1.8195 4.1922 4.7598 4.1922 1.8049 0 3.2023-.6114 4.163-1.8341v1.5139h1.9214v-9.9127c.0146-2.5473-1.8049-4.0612-4.8617-4.0612zm-1.0335 12.4164c-.8879 0-2.9403-.2329-2.9403-2.4309 0-1.5284.9607-1.9796 2.8675-2.329.1893-.0291.3931-.0728.5968-.1019 1.1936-.2037 2.5328-.4366 3.4789-1.0334v1.9796c-.0145 2.8966-2.0815 3.9156-4.0029 3.9156z"/><path d="m106.172 11.1355c-.452-.3203-1.179-.524-1.922-.524-1.514 0-3.042.8005-3.886 2.0087v-1.7467h-1.9216v13.6681h1.9216v-7.3071c0-3.246 1.819-4.6871 3.624-4.6871.553 0 1.165.131 1.529.3202l.131.0728.596-1.7322z"/><path d="m113.144 10.5677c-3.77 0-6.405 2.9549-6.405 7.1762 0 4.2503 2.635 7.1033 6.55 7.1033 2.781 0 4.469-1.3391 5.386-2.4599l.073-.0874-1.383-1.2372-.087.1019c-.917 1.179-2.286 1.8195-3.887 1.8195-2.78 0-4.585-1.936-4.643-4.9491h10.48l.015-.1164c.014-.1165.058-.5241.058-.9753 0-3.7555-2.533-6.3756-6.157-6.3756zm-4.323 5.7788c.262-2.4017 1.921-3.9447 4.265-3.9447 2.838 0 4.017 2.0087 4.192 3.9447z"/></g></svg>