<svg fill="none" height="28" viewBox="0 0 141 28" width="141" xmlns="http://www.w3.org/2000/svg"><g fill="#101010"><path d="m128.6 21.6-.2.1c-1.2.4-2.9 1-4.5 1.7-.1 0-.1.1-.1.1 0 .1-.1.1-.1.2-.2.4-.4 1-.5 1.2l-.1.2v.1h.1l.2-.1c.4-.2 1-.5 1.5-.8 1.1-.5 2.3-1.1 3-1.4 0 0 .1-.1.2-.2l.5-1.1c.1 0 .1.1 0 0z"/><path d="m124.2 19.9c.1-.2.4-.8.5-1 2.4-4.5 5.3-8.7 8.6-12.6l.1-.1v-.1l-.1-.1h-.1c-2.2.3-4.4.7-6.6 1.2-.2.1-.4.2-.4.2-1.6 2-3.2 4-4.6 6.1-.1.1-.1.4-.1.4s.4 2.8.9 4.8c-1.3 3.7-2.4 8.6-2.4 8.6v.1h.8s.1 0 .1-.1l.1-.1c.8-2 1.6-4.1 2.6-6 .2-.4.6-1.3.6-1.3z"/><path d="m134.5 7.10002v-.1s0-.1-.1-.1h-.1l-.1.1c-3.9 4.49998-7.2 9.49998-9.7 14.89998l-.1.1v.1h.1l.1-.1c2.2-.9 4.4-1.7 6.7-2.3.1 0 .2-.1.3-.3 1-1.9 3.2-5.6 3.2-5.6.1-.1 0-.2 0-.2s-.3-4.29998-.3-6.49998z"/><path d="m139.5.7c-.5-.4-1.3-.7-2.6-.7-1.1 0-2.5.2-4 .7-.2.1-.4.2-.6.4-1.6 1.5-3.1 3-4.5 4.6l-.1.1v.1l.1.1h.2c2.3-.5 4.6-.9 6.9-1.1.1 0 .3 0 .4.1s.2.2.2.4c0 2.3 0 4.5.2 6.7v.1s0 .1.1.1h.1l.1-.1c1.3-1.8 2.7-3.6 4.1-5.3.2-.2.2-.3.2-.5.6-2.9-.2-5.1-.8-5.7z"/><path d="m33.9999 7.29995c-1.3 0-2.7.7-3.6 1.7h-.1v-6.3h-2.4v18.30005h2.2v-1.3h.1c.9 1 2.4 1.7 3.8 1.7 3.5 0 5.8-2.8 5.8-7-.1-4.2-2.5-7.10005-5.8-7.10005zm-.5 11.80005c-1.8 0-3.2-1.3-3.2-2.9v-3.6c0-1.8 1.4-3.10005 3.2-3.10005 2.4 0 3.7 1.70005 3.7 4.80005s-1.3 4.8-3.7 4.8z"/><path d="m19.9999 7.30005c-3.6 0-6.1 2.89995-6.1 6.99995 0 4.2 2.4 7 6.1 7 3.6 0 6-2.8 6-7 0-4.1-2.5-6.99995-6-6.99995zm0 11.79995c-2.3 0-3.7-1.9-3.7-4.8s1.4-4.79995 3.7-4.79995c2.2 0 3.6 1.89995 3.6 4.79995 0 3-1.4 4.8-3.6 4.8z"/><path d="m12.8 8.50002c0-3.1-2.3-5.1-5.9-5.1h-6.9v17.59998h2.5v-7h3.6c2.8 0 3.8 1.1 3.8 4.2v2.8h2.4v-2.8c0-2.8-.9-4.5-2.7-5.1 1.9-.7 3.2-2.3 3.2-4.59998zm-6.1 3.29998h-4.2v-6.09998h4.1c2.4 0 3.6 1 3.6 3.1 0 1.89998-1.2 2.99998-3.5 2.99998z"/><path d="m52.8998 7.30005c-1.4 0-2.9.7-3.6 1.7h-.1v-1.3h-2.4v13.29995h2.4v-8.3c0-1.9 1.2-3.09995 3.2-3.09995 1.9 0 2.8 1.09995 2.8 3.39995v8h2.5v-8.7c0-3.09995-1.8-4.99995-4.8-4.99995z"/><path d="m92.4999 7.30005c-3.6 0-6.1 2.89995-6.1 6.99995 0 4.2 2.4 7 6.1 7 3.6 0 6-2.8 6-7 .1-4.1-2.4-6.99995-6-6.99995zm0 11.79995c-2.3 0-3.7-1.9-3.7-4.8s1.4-4.79995 3.7-4.79995c2.2 0 3.6 1.89995 3.6 4.79995.1 3-1.3 4.8-3.6 4.8z"/><path d="m109.4 2.69995v6.3h-.1c-.9-1-2.3-1.7-3.6-1.7-3.4 0-5.7 2.90005-5.7 7.00005 0 4.3 2.3 6.9999 5.8 6.9999 1.4 0 2.9-.6999 3.8-1.6999h.1v1.4h2.2v-18.30005zm0 13.50005c0 1.7-1.4 2.9-3.2 2.9-2.4 0-3.7-1.7-3.7-4.8s1.3-4.80005 3.7-4.80005c1.8 0 3.2 1.40005 3.2 3.10005z"/><path d="m78.8998 7.30005c-3.6 0-6.1 2.89995-6.1 6.99995 0 4.2 2.4 7 6.1 7 3.6 0 6-2.8 6-7 .1-4.1-2.4-6.99995-6-6.99995zm0 11.79995c-2.3 0-3.7-1.9-3.7-4.8s1.4-4.79995 3.7-4.79995c2.2 0 3.6 1.89995 3.6 4.79995.1 3-1.3 4.8-3.6 4.8z"/><path d="m44.2001 2.69995h-2.6v2.6h2.6z"/><path d="m66.4002 7.29995c-1.5 0-3 .7-3.7 1.7h-.1v-6.3h-2.4v18.30005h2.4v-8.3c0-1.8 1.3-3.10005 3.2-3.10005 1.8 0 2.9 1.20005 2.9 3.30005v8.1h2.4v-8.7c0-3.10005-1.8-5.00005-4.7-5.00005z"/><path d="m44.1002 7.69995h-2.4v13.30005h2.4z"/></g></svg>