<svg xmlns="http://www.w3.org/2000/svg" width="48" height="48"><path d="M18.102 20.645a3.528 3.528 0 0 1-1.547-.36l.894-1.789c.406.195 1.188.39 1.656-.55 1-1.997 3.047-5.122 5.188-7.262.992-.993 2.895-2.465 4.898-3.52 2.61-1.371 4.465-1.531 5.516-.48l2.5 2.5-1.414 1.414-2.5-2.5c-.734-.735-5.203 1.62-7.586 4-1.895 1.894-3.852 4.824-4.812 6.742-.676 1.351-1.782 1.805-2.793 1.805zm0 0M5 41.605l1.324-1.375c.395-.39.961-.347 1.356.043.39.391.453.98.062 1.372L6.36 43zm0 0" fill="#546e7a"/><path d="M9.977 32.727s7.117-8.766 13.27-14.918c6.163-6.168 11.937-10.5 11.991-10.54a.826.826 0 0 1 1.078.075l4.336 4.336c.293.293.325.75.078 1.082-.042.054-4.37 5.828-10.539 11.992-6.152 6.152-14.836 13.2-14.918 13.27zm0 0" fill="#f06292"/><path d="M35.238 7.27c2.196-1.329 4.008-2.254 5.39-2.254.688 0 1.267.222 1.7.656 1.547 1.55.035 4.387-1.598 7.09zm0 0M7.738 41.645c1.121-.2 3.692-.918 7.535-3.622l-5.3-5.296c-2.7 3.843-3.45 6.386-3.649 7.503zm0 0" fill="#d81b60"/></svg>