<svg xmlns="http://www.w3.org/2000/svg" width="48" height="48"><path d="M44 24c0 11.043-8.957 20-20 20S4 35.043 4 24 12.957 4 24 4s20 8.957 20 20zm0 0" fill="#4caf50"/><path d="M16.602 18.8l5.597 2.802L24 18.398A11.144 11.144 0 0 0 25.398 13v-.898c0-1.204-1-2.204-2.199-2.204h-.5c-.398 0-.699.301-.8.704l-.5 2c-.2.898-.7 1.699-1.297 2.398zm0 0" fill="#ffcc80"/><path d="M29.8 34H19c-2.2 0-4-1.8-4-4v-8c0-2.2 1.8-4 4-4h13c1.102 0 2 .898 2 2 0 1.102-.5 1.5-.5 2s.5.898.5 2c0 1.102-.8 1.8-.898 2.3-.204.598.097 1.598-.204 2.302-.296.699-.898 1.097-1 1.796-.097.704.301 1.5 0 2.301C31.5 33.301 30.801 34 29.801 34zm0 0" fill="#ffcc80"/></svg>