<svg fill="none" height="20" viewBox="0 0 24 20" width="24" xmlns="http://www.w3.org/2000/svg"><path d="m23.2667 3.01208c-.8294.36833-1.7204.6162-2.6555.728.9551-.572 1.6874-1.47767 2.0323-2.55754-.8926.52954-1.8824.91434-2.9362 1.12234-.8433-.89874-2.0445-1.460337-3.374-1.460337-2.5532 0-4.6228 2.070467-4.6228 4.622797 0 .36227.0416.71587.1196 1.053-3.84191-.1924-7.24791-2.0332-9.52898-4.8308-.39693.68294-.62487 1.4768-.62487 2.32527 0 1.60333.81554 3.0186 2.05574 3.84713-.75747-.02426-1.47074-.23226-2.09387-.57806v.05806c0 2.24034 1.59293 4.10886 3.70847 4.53266-.3874.1057-.79647.1621-1.21854.1621-.29726 0-.5876-.0295-.86926-.0824.58846 1.8365 2.2958 3.1738 4.3186 3.211-1.58167 1.2402-3.575 1.9795-5.74167 1.9795-.37267 0-.741-.0217-1.103268-.065 2.046198 1.3113 4.475468 2.0765 7.086738 2.0765 8.50371 0 13.15251-7.0442 13.15251-13.15336 0-.2002-.0043-.39953-.013-.598.904-.6526 1.6883-1.4664 2.308-2.39286z" fill="#c1976c"/></svg>