<svg fill="none" height="20" viewBox="0 0 24 20" width="24" xmlns="http://www.w3.org/2000/svg"><path d="m12 .466675c-3.62786 0-8.33658.908985-8.33658.908985l-.01185.01354c-1.65232.26426-2.918233 1.68408-2.918233 3.41081v5.19999.0017 5.1983.0017c.001613.8247.297153 1.6217.833563 2.2481.5364.6264 1.27853 1.041 2.09313 1.1695l.00339.0051s4.70872.9106 8.33658.9106c3.6279 0 8.3366-.9106 8.3366-.9106l.0017-.0017c.8155-.1282 1.5585-.5432 2.0953-1.1703s.8322-1.4252.8331-2.2507v-.0017-5.1983-.0017-5.19999c-.0012-.82496-.2966-1.62244-.833-2.24917-.5365-.62672-1.2788-1.04161-2.0937-1.1701l-.0034-.00508s-4.7087-.908985-8.3366-.908985zm-2.6 5.545315 6.9333 3.98801-6.9333 3.988z" fill="#c1976c"/></svg>